<svg xmlns="http://www.w3.org/2000/svg" width="259.066" height="259.058" viewBox="0 0 68.545 68.542"><defs><clipPath id="a" clipPathUnits="userSpaceOnUse"><path d="M0 792h612V0H0Z"/></clipPath></defs><g clip-path="url(#a)" style="fill:none" transform="matrix(1.55649 0 0 -1.55649 -187.193 1103.638)"><path d="M0 0v5.547c5.888 0 10.439 5.828 8.192 12.017a8.31 8.31 0 0 1-4.954 4.953c-6.189 2.246-12.014-2.305-12.015-8.191l-.001-.002h-5.547c0 9.38 9.062 16.683 18.89 13.614a13.847 13.847 0 0 0 9.049-9.048C16.683 9.061 9.379 0 0 0" style="fill:#0069ff;fill-opacity:1;fill-rule:nonzero;stroke:none" transform="matrix(1.53713 0 0 1.53713 142.286 665.02)"/><path d="M0 0h-5.531v5.53l.001.001h5.529L0 5.53Z" style="fill:#0069ff;fill-opacity:1;fill-rule:evenodd;stroke:none" transform="matrix(1.53713 0 0 1.53713 142.305 673.525)"/><path d="M0 0h-4.249l-.001.001V4.25H.001V.001Z" style="fill:#0069ff;fill-opacity:1;fill-rule:evenodd;stroke:none" transform="matrix(1.53713 0 0 1.53713 133.801 666.993)"/><path d="M0 0h-3.562l-.002.001v3.56l.002.003h3.56L0 3.563Z" style="fill:#0069ff;fill-opacity:1;fill-rule:evenodd;stroke:none" transform="matrix(1.53713 0 0 1.53713 127.274 673.525)"/></g></svg>